<svg width="32.000000" height="32.000000" viewBox="0 0 32 32" fill="none" xmlns="http://www.w3.org/2000/svg" xmlns:xlink="http://www.w3.org/1999/xlink">
	<desc>
			Created with Pixso.
	</desc>
	<defs>
		<clipPath id="clip0_47">
			<rect id="dot" width="32.000000" height="32.000000" transform="translate(-0.403381 0.000000)" fill="white" fill-opacity="0"/>
		</clipPath>
	</defs>
	<rect id="dot" width="32.000000" height="32.000000" transform="translate(-0.403381 0.000000)" fill="#FFFFFF" fill-opacity="0"/>
	<g clip-path="url(#clip0_47)">
		<g opacity="0.747000">
			<path id="Oval 4 Copy" d="M15.59 32C24.43 32 31.59 24.83 31.59 16C31.59 7.16 24.43 0 15.59 0C6.76 0 -0.41 7.16 -0.41 16C-0.41 24.83 6.76 32 15.59 32Z" fill="#ECB84C" fill-opacity="1.000000" fill-rule="evenodd"/>
			<path id="Oval 4 Copy" d="M31.59 16C31.59 7.16 24.43 0 15.59 0C6.76 0 -0.41 7.16 -0.41 16C-0.41 24.83 6.76 32 15.59 32C24.43 32 31.59 24.83 31.59 16Z" stroke="#979797" stroke-opacity="0" stroke-width="0.000000"/>
		</g>
		<path id="Oval 4" d="M15.59 21C18.35 21 20.59 18.76 20.59 16C20.59 13.23 18.35 11 15.59 11C12.83 11 10.59 13.23 10.59 16C10.59 18.76 12.83 21 15.59 21Z" fill="#FFD600" fill-opacity="1.000000" fill-rule="evenodd"/>
		<path id="Oval 4" d="M20.59 16C20.59 13.23 18.35 11 15.59 11C12.83 11 10.59 13.23 10.59 16C10.59 18.76 12.83 21 15.59 21C18.35 21 20.59 18.76 20.59 16Z" stroke="#979797" stroke-opacity="0" stroke-width="0.000000"/>
	</g>
</svg>
