<svg width="94.000000" height="80.000000" viewBox="0 0 94 80" fill="none" xmlns="http://www.w3.org/2000/svg" xmlns:xlink="http://www.w3.org/1999/xlink">
	<desc>
			Created with Pixso.
	</desc>
	<defs>
		<clipPath id="clip0_88">
			<rect width="94.000000" height="80.000000" fill="white" fill-opacity="0"/>
		</clipPath>
	</defs>
	<rect width="94.000000" height="80.000000" fill="#FFFFFF" fill-opacity="0"/>
	<g clip-path="url(#clip0_88)">
		<path d="M86.76 26.39C82.23 21.87 75.91 18.66 68.94 17.33C68.1 17.17 67.29 17.73 67.13 18.57C66.97 19.42 67.52 20.23 68.37 20.39C81.63 22.91 90.9 32.19 90.9 42.94C90.9 51.8 84.63 59.77 74.53 63.73C74.02 63.93 73.65 64.39 73.56 64.94C72.95 68.94 73.79 73.01 75.83 76.4C71.37 75.2 67.76 71.76 66.35 67.1C66.14 66.39 65.46 65.93 64.74 66C63.64 66.09 62.54 66.14 61.46 66.14C51.82 66.14 42.77 62.4 37.25 56.14C36.69 55.49 35.71 55.43 35.07 56C34.42 56.57 34.37 57.56 34.93 58.2C41.03 65.12 50.94 69.26 61.46 69.26C62.23 69.26 63.01 69.23 63.79 69.19C64.92 72.1 66.85 74.7 69.32 76.59C72.23 78.81 75.7 79.98 79.35 79.98C79.97 79.98 80.54 79.6 80.78 79.02C81.02 78.44 80.89 77.77 80.45 77.33C77.59 74.42 76.16 70.35 76.52 66.28C81.53 64.16 85.77 61.03 88.83 57.18C92.21 52.94 94 48.02 94 42.94C94 36.93 91.42 31.04 86.76 26.39Z" fill="#ECB84C" fill-opacity="1.000000" fill-rule="evenodd"/>
		<path d="M65.0769 26.3265C65.0769 19.2293 61.6454 12.5798 55.4143 7.60254C49.2882 2.70905 41.1639 0.0141602 32.5385 0.0141602C23.9124 0.0141602 15.7878 2.70905 9.66211 7.60254C3.43127 12.5798 0 19.2293 0 26.3265C0 31.4016 1.78491 36.3256 5.16174 40.5663C8.22717 44.4158 12.47 47.5464 17.4735 49.6592C17.8391 53.7307 16.4043 57.8064 13.5471 60.7073C13.1071 61.1541 12.9772 61.8234 13.2179 62.404C13.4585 62.9846 14.0227 63.3627 14.6478 63.3627C18.2968 63.3627 21.7623 62.1893 24.6702 59.9691C27.1455 58.0792 29.0778 55.4847 30.201 52.5709C30.9839 52.6161 31.766 52.639 32.5382 52.639C41.1639 52.639 49.2882 49.9442 55.4142 45.0507C61.6454 40.0732 65.0769 33.4236 65.0769 26.3265ZM27.6431 50.4784C27.8553 49.7729 28.5295 49.3135 29.26 49.3777C30.3544 49.4735 31.4574 49.5219 32.5385 49.5219C48.7715 49.5219 61.978 39.1165 61.978 26.3265C61.978 13.5364 48.7715 3.13104 32.5385 3.13104C16.3054 3.13104 3.09888 13.5364 3.09888 26.3265C3.09888 35.1859 9.36938 43.1485 19.4631 47.1065C19.9784 47.3087 20.3475 47.7717 20.4316 48.3215C21.0441 52.3215 20.2081 56.3926 18.1655 59.7835C22.6257 58.5854 26.238 55.1429 27.6431 50.4784Z" clip-rule="evenodd" fill="#ECB84C" fill-opacity="1.000000" fill-rule="evenodd"/>
	</g>
</svg>
