<svg width="80.000000" height="76.000000" viewBox="0 0 80 76" fill="none" xmlns="http://www.w3.org/2000/svg" xmlns:xlink="http://www.w3.org/1999/xlink">
	<desc>
			Created with Pixso.
	</desc>
	<defs>
		<clipPath id="clip0_155">
			<rect width="80.000000" height="76.000000" fill="white" fill-opacity="0"/>
		</clipPath>
	</defs>
	<rect width="80.000000" height="76.000000" fill="#FFFFFF" fill-opacity="0"/>
	<g clip-path="url(#clip0_155)">
		<path d="M68.9656 0.0377197L74.4828 0.0377197C77.6552 0.0377197 80 2.38452 80 5.42151L80 16.327C80 19.1595 78.2812 21.7327 75.8622 22.8961L75.8622 74.5818C75.8622 75.4102 75.3105 75.9623 74.4828 75.9623L5.51733 75.9623C4.6897 75.9623 4.13794 75.4102 4.13794 74.5818L4.13794 22.8925C3.45734 22.5917 2.80591 22.1905 2.20685 21.7107C0.827637 20.4683 0 18.5358 0 16.6031L0 5.42151C0 2.38452 2.34485 0.0377197 5.37939 0.0377197L68.9656 0.0377197ZM57.9311 2.79877L66.0691 2.79877L66.0691 16.6032C66.0691 16.8805 66.0911 17.1574 66.1292 17.4327C65.7622 19.3599 64.1288 20.7446 62.0691 20.7446C59.7242 20.7446 57.9311 18.95 57.9311 16.6032L57.9311 2.79877ZM46.8965 2.79877L55.1725 2.79877L55.1725 16.6032C55.1725 18.95 53.3794 20.7446 51.0345 20.7446C48.6897 20.7446 46.8965 18.95 46.8965 16.6032L46.8965 2.79877ZM35.8621 2.79877L44.1379 2.79877L44.1379 16.6032C44.1379 18.95 42.3448 20.7446 40 20.7446C37.6552 20.7446 35.8621 18.95 35.8621 16.6032L35.8621 2.79877ZM24.8276 2.79877L33.1036 2.79877L33.1036 16.6032C33.1036 18.95 31.3105 20.7446 28.9656 20.7446C26.6208 20.7446 24.8276 18.95 24.8276 16.6032L24.8276 2.79877ZM13.7932 2.79877L22.0691 2.79877L22.0691 16.6032C22.0691 18.95 20.2759 20.7446 17.9311 20.7446C15.5862 20.7446 13.7932 18.95 13.7932 16.6032L13.7932 16.327L13.7932 2.79877L13.7932 2.79877ZM2.75861 16.6031L2.75861 5.42151C2.75861 3.90308 3.86206 2.79877 5.37921 2.79877L11.0344 2.79877L11.0344 16.327C11.0344 18.3915 9.58813 20.2145 7.70972 20.6692C7.50531 20.7074 7.29498 20.7314 7.07953 20.7401C6.03705 20.7033 4.90826 20.411 4.13782 19.6401C3.3103 18.9498 2.75861 17.7074 2.75861 16.6031ZM7.58624 23.5053C8.1322 23.4398 8.66077 23.3045 9.16388 23.1098C10.4589 22.6521 11.5972 21.8236 12.3969 20.7657C13.645 22.4388 15.6426 23.5053 17.9311 23.5053C20.2094 23.5053 22.199 22.4479 23.4483 20.7874C24.6975 22.4479 26.6872 23.5053 28.9655 23.5053C31.2438 23.5053 33.2335 22.4479 34.4827 20.7874C35.7319 22.4479 37.7216 23.5053 39.9999 23.5053C42.2781 23.5053 44.2678 22.4479 45.517 20.7874C46.7662 22.4479 48.7559 23.5053 51.0342 23.5053C53.3125 23.5053 55.3022 22.4479 56.5514 20.7874C57.8006 22.4479 59.7903 23.5053 62.0686 23.5053C64.3403 23.5053 66.3248 22.4538 67.5747 20.8017C67.8311 21.1324 68.1116 21.4389 68.4133 21.7107C68.6342 21.8877 68.8632 22.0527 69.097 22.2072C70.0731 22.9003 71.2397 23.3549 72.4728 23.4722C72.483 23.4733 72.4931 23.474 72.5033 23.475C72.5876 23.4826 72.6719 23.49 72.7569 23.4945C72.8722 23.5011 72.9875 23.5053 73.1028 23.5053L73.1028 29.027L6.89655 29.027L6.89655 23.5053L7.58624 23.5053ZM13.7932 73.2013L13.7932 37.3098L30.3448 37.3098L30.3448 56.636L27.5862 56.636C26.7586 56.636 26.2068 57.1882 26.2068 58.0165C26.2068 58.8448 26.7586 59.397 27.5862 59.397L30.3448 59.397L30.3448 73.2015L13.7932 73.2015L13.7932 73.2013ZM73.1035 73.2013L33.1035 73.2013L33.1035 35.9294C33.1035 35.1011 32.5517 34.5489 31.7241 34.5489L12.4138 34.5489C11.5861 34.5489 11.0344 35.1011 11.0344 35.9294L11.0344 73.2015L6.89655 73.2015L6.89655 31.788L73.1035 31.788L73.1035 73.2013ZM77.2414 16.327C77.2414 18.3667 75.991 19.9885 74.3053 20.5596C74.2266 20.5668 74.1478 20.5803 74.0689 20.6065C73.8658 20.7081 73.5881 20.7347 73.3456 20.7418C72.2869 20.7141 71.1298 20.4257 70.3448 19.6401C69.5172 18.9498 68.9655 17.7074 68.9655 16.6031L68.9655 2.79877L74.6206 2.79877C76.1378 2.79877 77.2413 4.04114 77.2413 5.42151L77.2413 16.327L77.2414 16.327Z" clip-rule="evenodd" fill="#ECB84C" fill-opacity="1.000000" fill-rule="evenodd"/>
		<path d="M68.9655 67.6795L38.6206 67.6795C37.7931 67.6795 37.2414 67.1273 37.2411 66.2991L37.2411 35.9293C37.2411 35.101 37.7928 34.5488 38.6205 34.5488L68.9655 34.5488C69.7931 34.5488 70.3448 35.101 70.3448 35.9293L70.3448 66.299C70.3448 67.1273 69.7931 67.6795 68.9655 67.6795ZM40 37.3097L45.5172 37.3097C45.2413 45.0403 42.6206 50.562 40 52.0804L40 37.3097ZM59.3105 59.3968C59.3105 60.2251 58.7587 60.7773 57.9311 60.7773L55.1722 60.7773L55.1722 64.9186L60.7285 64.9186C61.0005 60.0024 62.7158 55.8972 65.2413 53.8751C61.8566 51.139 59.5786 44.9589 59.3333 37.3097L48.2514 37.3097C47.9925 44.9589 45.5992 51.139 42.3447 53.8751C44.8703 55.8972 46.5854 60.0024 46.8575 64.9186L52.4138 64.9186L52.4138 60.7773L49.6552 60.7773C48.8275 60.7773 48.2758 60.2251 48.2758 59.3968C48.2758 58.5684 48.8275 58.0162 49.6552 58.0162L57.9311 58.0162C58.7587 58.0162 59.3105 58.5684 59.3105 59.3968ZM67.5862 52.0804L67.5862 37.3097L62.069 37.3097C62.3448 45.0401 64.8276 50.562 67.5862 52.0804ZM44.1379 64.9186C43.862 60.2251 42.0689 56.774 40 55.6696L40 64.9186L44.1379 64.9186ZM67.5862 64.9186L63.4483 64.9186C63.862 60.2251 65.6552 56.774 67.5862 55.6696L67.5862 64.9186Z" clip-rule="evenodd" fill="#ECB84C" fill-opacity="1.000000" fill-rule="evenodd"/>
		<path d="M27.5862 41.4509L27.5862 49.7337C27.5862 50.562 27.0345 51.1142 26.2069 51.1142L17.931 51.1142C17.1033 51.1142 16.5516 50.562 16.5516 49.7337L16.5516 41.4509C16.5516 40.6226 17.1033 40.0704 17.931 40.0704L26.2069 40.0704C27.0345 40.0704 27.5862 40.6226 27.5862 41.4509ZM19.3105 48.3533L24.8277 48.3533L24.8277 42.8316L19.3105 42.8316L19.3105 48.3533Z" clip-rule="evenodd" fill="#ECB84C" fill-opacity="1.000000" fill-rule="evenodd"/>
	</g>
</svg>
