<svg width="80.000000" height="80.000000" viewBox="0 0 80 80" fill="none" xmlns="http://www.w3.org/2000/svg" xmlns:xlink="http://www.w3.org/1999/xlink">
	<desc>
			Created with Pixso.
	</desc>
	<defs>
		<clipPath id="clip0_96">
			<rect width="80.000000" height="80.000000" fill="white" fill-opacity="0"/>
		</clipPath>
	</defs>
	<rect width="80.000000" height="80.000000" fill="#FFFFFF" fill-opacity="0"/>
	<g clip-path="url(#clip0_96)">
		<path d="M28.028 38.636C25 35.2161 20.9627 33.3334 16.6573 33.3334C12.3521 33.3334 8.3147 35.2161 5.28802 38.636C-0.861328 45.584 -0.861328 56.8867 5.28802 63.8347L16.6573 76.6787L28.0267 63.8347C34.1774 56.8867 34.1774 45.584 28.028 38.636ZM16.6587 72.6547L26.0307 62.0667C31.3174 56.0934 31.3174 46.376 26.0294 40.4041C23.5173 37.564 20.1867 36.0001 16.6573 36.0001C13.1281 36.0001 9.79871 37.564 7.28534 40.4041C1.99738 46.376 1.99738 56.0947 7.28534 62.0667L16.6587 72.6547Z" clip-rule="evenodd" fill="#ECB84C" fill-opacity="1.000000" fill-rule="evenodd"/>
		<path d="M64.996 32.676L73.6147 22.9613C78.252 17.7347 78.252 9.23334 73.6147 4.00665C71.3214 1.42267 68.26 0 64.9947 0C61.7307 0 58.6694 1.42267 56.376 4.00665C51.7386 9.23334 51.7386 17.7347 56.376 22.9613L64.996 32.676ZM64.9947 2.66669C62.5027 2.66669 60.1507 3.77069 58.3707 5.77734C54.6 10.0267 54.6 16.9413 58.3707 21.1907L64.996 28.6587L71.62 21.1907C75.3907 16.9413 75.3907 10.0267 71.62 5.77734C69.84 3.77069 67.488 2.66669 64.9947 2.66669Z" clip-rule="evenodd" fill="#ECB84C" fill-opacity="1.000000" fill-rule="evenodd"/>
		<path d="M70.13 72.68C69.42 72.52 68.7 72.97 68.54 73.69C68.39 74.37 68.09 75 67.66 75.55C67.2 76.13 67.3 76.97 67.88 77.42C68.13 77.61 68.42 77.71 68.7 77.71C69.1 77.71 69.49 77.53 69.75 77.2C70.42 76.34 70.9 75.33 71.14 74.28C71.3 73.56 70.85 72.85 70.13 72.68Z" fill="#ECB84C" fill-opacity="1.000000" fill-rule="evenodd"/>
		<path d="M42.66 41.33C42.08 41.33 41.52 41.22 40.99 41.02C40.3 40.76 39.53 41.1 39.26 41.79C39 42.48 39.35 43.25 40.04 43.51C40.87 43.83 41.75 43.99 42.65 43.99L43.13 43.99C43.87 43.99 44.46 43.4 44.46 42.66C44.46 41.92 43.87 41.33 43.13 41.33L42.66 41.33Z" fill="#ECB84C" fill-opacity="1.000000" fill-rule="evenodd"/>
		<path d="M39.49 32.9C39.73 32.9 39.97 32.83 40.19 32.7C40.78 32.33 41.44 32.1 42.13 32.02C42.86 31.94 43.39 31.28 43.31 30.55C43.23 29.82 42.58 29.3 41.84 29.37C40.74 29.49 39.72 29.85 38.78 30.43C38.16 30.82 37.97 31.64 38.36 32.27C38.61 32.67 39.04 32.9 39.49 32.9Z" fill="#ECB84C" fill-opacity="1.000000" fill-rule="evenodd"/>
		<path d="M24.08 77.33L21.41 77.33C20.68 77.33 20.08 77.92 20.08 78.66C20.08 79.4 20.68 80 21.41 80L24.08 80C24.82 80 25.41 79.4 25.41 78.66C25.41 77.92 24.82 77.33 24.08 77.33Z" fill="#ECB84C" fill-opacity="1.000000" fill-rule="evenodd"/>
		<path d="M47.99 53.33C47.87 53.33 47.76 53.33 47.64 53.34C46.91 53.37 46.34 53.99 46.37 54.72C46.4 55.44 46.99 56 47.7 56C47.72 56 47.74 56 47.75 56L50.37 56C51.1 56 51.7 55.4 51.7 54.66C51.7 53.92 51.1 53.33 50.37 53.33L47.99 53.33Z" fill="#ECB84C" fill-opacity="1.000000" fill-rule="evenodd"/>
		<path d="M47.32 32L49.99 32C50.72 32 51.32 31.4 51.32 30.66C51.32 29.92 50.72 29.33 49.99 29.33L47.32 29.33C46.58 29.33 45.99 29.92 45.99 30.66C45.99 31.4 46.58 32 47.32 32Z" fill="#ECB84C" fill-opacity="1.000000" fill-rule="evenodd"/>
		<path d="M63.7 53.33C62.96 53.33 62.37 53.92 62.37 54.66C62.37 55.4 62.96 56 63.7 56L66.37 56C67.1 56 67.7 55.4 67.7 54.66C67.7 53.92 67.1 53.33 66.37 53.33L63.7 53.33Z" fill="#ECB84C" fill-opacity="1.000000" fill-rule="evenodd"/>
		<path d="M68.46 42.66C68.46 41.92 67.87 41.33 67.13 41.33L64.46 41.33C63.73 41.33 63.13 41.92 63.13 42.66C63.13 43.4 63.73 44 64.46 44L67.13 44C67.87 44 68.46 43.4 68.46 42.66Z" fill="#ECB84C" fill-opacity="1.000000" fill-rule="evenodd"/>
		<path d="M55.7 56L58.37 56C59.1 56 59.7 55.4 59.7 54.66C59.7 53.92 59.1 53.33 58.37 53.33L55.7 53.33C54.96 53.33 54.37 53.92 54.37 54.66C54.37 55.4 54.96 56 55.7 56Z" fill="#ECB84C" fill-opacity="1.000000" fill-rule="evenodd"/>
		<path d="M57.99 32C58.72 32 59.32 31.4 59.32 30.66C59.32 29.92 58.72 29.33 57.99 29.33L55.32 29.33C54.58 29.33 53.99 29.92 53.99 30.66C53.99 31.4 54.58 32 55.32 32L57.99 32Z" fill="#ECB84C" fill-opacity="1.000000" fill-rule="evenodd"/>
		<path d="M48.46 41.33C47.73 41.33 47.13 41.92 47.13 42.66C47.13 43.4 47.73 44 48.46 44L51.13 44C51.87 44 52.46 43.4 52.46 42.66C52.46 41.92 51.87 41.33 51.13 41.33L48.46 41.33Z" fill="#ECB84C" fill-opacity="1.000000" fill-rule="evenodd"/>
		<path d="M60.46 42.66C60.46 41.92 59.87 41.33 59.13 41.33L56.46 41.33C55.73 41.33 55.13 41.92 55.13 42.66C55.13 43.4 55.73 44 56.46 44L59.13 44C59.87 44 60.46 43.4 60.46 42.66Z" fill="#ECB84C" fill-opacity="1.000000" fill-rule="evenodd"/>
		<path d="M79.23 47.5C79.11 46.78 78.43 46.28 77.7 46.4C76.97 46.52 76.48 47.2 76.6 47.93C76.63 48.16 76.66 48.41 76.65 48.66C76.65 49.11 76.59 49.55 76.46 49.98C76.26 50.69 76.66 51.43 77.37 51.64C77.49 51.67 77.62 51.69 77.74 51.69C78.32 51.69 78.85 51.31 79.02 50.73C79.22 50.06 79.32 49.36 79.32 48.67C79.32 48.29 79.29 47.9 79.23 47.5Z" fill="#ECB84C" fill-opacity="1.000000" fill-rule="evenodd"/>
		<path d="M56.08 77.33L53.41 77.33C52.68 77.33 52.08 77.92 52.08 78.66C52.08 79.4 52.68 80 53.41 80L56.08 80C56.82 80 57.41 79.4 57.41 78.66C57.41 77.92 56.82 77.33 56.08 77.33Z" fill="#ECB84C" fill-opacity="1.000000" fill-rule="evenodd"/>
		<path d="M48.08 77.33L45.41 77.33C44.68 77.33 44.08 77.92 44.08 78.66C44.08 79.4 44.68 80 45.41 80L48.08 80C48.82 80 49.41 79.4 49.41 78.66C49.41 77.92 48.82 77.33 48.08 77.33Z" fill="#ECB84C" fill-opacity="1.000000" fill-rule="evenodd"/>
		<path d="M62.75 66.66C62.75 65.92 62.15 65.33 61.42 65.33L58.75 65.33C58.01 65.33 57.42 65.92 57.42 66.66C57.42 67.4 58.01 68 58.75 68L61.42 68C62.15 68 62.75 67.4 62.75 66.66Z" fill="#ECB84C" fill-opacity="1.000000" fill-rule="evenodd"/>
		<path d="M54.75 66.66C54.75 65.92 54.15 65.33 53.42 65.33L50.75 65.33C50.01 65.33 49.42 65.92 49.42 66.66C49.42 67.4 50.01 68 50.75 68L53.42 68C54.15 68 54.75 67.4 54.75 66.66Z" fill="#ECB84C" fill-opacity="1.000000" fill-rule="evenodd"/>
		<path d="M63.99 77.33L61.41 77.33C60.68 77.33 60.08 77.92 60.08 78.66C60.08 79.4 60.68 80 61.41 80L64.04 79.99L64.08 78.66L64.08 79.99C64.82 79.99 65.37 79.4 65.37 78.66C65.37 77.92 64.72 77.33 63.99 77.33Z" fill="#ECB84C" fill-opacity="1.000000" fill-rule="evenodd"/>
		<path d="M68.7 70.29C68.99 70.29 69.28 70.19 69.53 70C70.11 69.55 70.2 68.71 69.75 68.13C69.08 67.28 68.21 66.57 67.24 66.09C66.58 65.76 65.78 66.03 65.46 66.69C65.13 67.35 65.4 68.15 66.06 68.48C66.67 68.79 67.23 69.24 67.65 69.78C67.92 70.11 68.31 70.29 68.7 70.29Z" fill="#ECB84C" fill-opacity="1.000000" fill-rule="evenodd"/>
		<path d="M73.79 52.97C73.22 53.21 72.61 53.33 71.99 53.33L71.7 53.33C70.96 53.33 70.37 53.92 70.37 54.66C70.37 55.4 70.96 56 71.7 56L71.99 56C72.97 56 73.92 55.8 74.82 55.43C75.5 55.14 75.82 54.36 75.53 53.68C75.25 53 74.46 52.68 73.79 52.97Z" fill="#ECB84C" fill-opacity="1.000000" fill-rule="evenodd"/>
		<path d="M37.37 39.8C38.07 39.57 38.45 38.82 38.22 38.12C38.06 37.65 37.99 37.16 37.99 36.67C37.99 36.47 38 36.26 38.02 36.07C38.12 35.34 37.6 34.67 36.87 34.58C36.11 34.49 35.47 35.01 35.38 35.74C35.34 36.04 35.32 36.34 35.32 36.66C35.32 37.44 35.44 38.22 35.68 38.95C35.87 39.51 36.39 39.87 36.95 39.87C37.09 39.87 37.23 39.85 37.37 39.8Z" fill="#ECB84C" fill-opacity="1.000000" fill-rule="evenodd"/>
		<path d="M32.08 77.33L29.41 77.33C28.68 77.33 28.08 77.92 28.08 78.66C28.08 79.4 28.68 80 29.41 80L32.08 80C32.82 80 33.41 79.4 33.41 78.66C33.41 77.92 32.82 77.33 32.08 77.33Z" fill="#ECB84C" fill-opacity="1.000000" fill-rule="evenodd"/>
		<path d="M45.49 67.45C46 67.45 46.48 67.16 46.7 66.68C47.01 66 46.72 65.21 46.05 64.91C45.42 64.62 44.86 64.19 44.41 63.66C43.94 63.1 43.1 63.02 42.53 63.5C41.97 63.97 41.89 64.81 42.37 65.38C43.07 66.21 43.96 66.88 44.94 67.33C45.12 67.41 45.31 67.45 45.49 67.45Z" fill="#ECB84C" fill-opacity="1.000000" fill-rule="evenodd"/>
		<path d="M75.66 42.31C74.7 41.76 73.66 41.44 72.57 41.35C71.83 41.3 71.19 41.84 71.13 42.58C71.08 43.31 71.62 43.95 72.36 44.01C73.06 44.06 73.72 44.27 74.32 44.62C74.53 44.74 74.76 44.8 74.99 44.8C75.45 44.8 75.9 44.56 76.14 44.14C76.51 43.5 76.29 42.68 75.66 42.31Z" fill="#ECB84C" fill-opacity="1.000000" fill-rule="evenodd"/>
		<path d="M40.08 77.33L37.41 77.33C36.68 77.33 36.08 77.92 36.08 78.66C36.08 79.4 36.68 80 37.41 80L40.08 80C40.82 80 41.41 79.4 41.41 78.66C41.41 77.92 40.82 77.33 40.08 77.33Z" fill="#ECB84C" fill-opacity="1.000000" fill-rule="evenodd"/>
		<path d="M43.4 59.78C43.53 59.09 43.81 58.46 44.23 57.9C44.66 57.3 44.54 56.47 43.94 56.03C43.35 55.6 42.52 55.72 42.08 56.32C41.43 57.2 40.99 58.2 40.78 59.28C40.64 60 41.12 60.7 41.84 60.84C41.92 60.86 42.01 60.86 42.09 60.86C42.72 60.86 43.28 60.42 43.4 59.78Z" fill="#ECB84C" fill-opacity="1.000000" fill-rule="evenodd"/>
		<path d="M72.6573 12.6667C72.6573 16.7094 69.3666 20.0001 65.324 20.0001C61.2813 20.0001 57.9907 16.7094 57.9907 12.6667C57.9907 8.62402 61.2813 5.33337 65.324 5.33337C69.3666 5.33337 72.6573 8.62402 72.6573 12.6667ZM69.9907 12.6667C69.9907 10.0934 67.8973 8.00006 65.324 8.00006C62.752 8.00006 60.6573 10.0934 60.6573 12.6667C60.6573 15.2401 62.7507 17.3334 65.324 17.3334C67.8973 17.3334 69.9907 15.2401 69.9907 12.6667Z" clip-rule="evenodd" fill="#ECB84C" fill-opacity="1.000000" fill-rule="evenodd"/>
		<path d="M8.65735 49.3334C8.65735 44.9214 12.2454 41.3334 16.6573 41.3334C21.0693 41.3334 24.6573 44.9214 24.6573 49.3334C24.6573 53.7454 21.0693 57.3334 16.6573 57.3334C12.2454 57.3334 8.65735 53.7454 8.65735 49.3334ZM11.324 49.3334C11.324 52.2747 13.716 54.6667 16.6573 54.6667C19.5987 54.6667 21.9907 52.2747 21.9907 49.3334C21.9907 46.392 19.5987 44.0001 16.6573 44.0001C13.716 44.0001 11.324 46.392 11.324 49.3334Z" clip-rule="evenodd" fill="#ECB84C" fill-opacity="1.000000" fill-rule="evenodd"/>
	</g>
</svg>
