<svg width="94.000000" height="72.000000" viewBox="0 0 94 72" fill="none" xmlns="http://www.w3.org/2000/svg" xmlns:xlink="http://www.w3.org/1999/xlink">
	<desc>
			Created with Pixso.
	</desc>
	<defs>
		<clipPath id="clip0_138">
			<rect width="94.000000" height="72.000000" fill="white" fill-opacity="0"/>
		</clipPath>
	</defs>
	<rect width="94.000000" height="72.000000" fill="#FFFFFF" fill-opacity="0"/>
	<g clip-path="url(#clip0_138)">
		<path d="M91.3007 23.2992C92.2594 23.5845 93.05 24.2279 93.5271 25.1102C94.0044 25.9927 94.1107 27.0092 93.8259 27.9724L90.8951 37.9015L90.8951 68.2014C90.8951 70.274 89.2158 71.9607 87.1517 71.9607L6.14233 71.9607C4.07825 71.9607 2.39905 70.274 2.39905 68.2014L2.39905 37.1835C0.596191 36.4869 -0.403442 34.5005 0.154663 32.6098L8.97986 2.71313C9.44763 1.12848 10.923 0.0214844 12.5681 0.0214844C12.9275 0.0214844 13.2856 0.0740356 13.6323 0.177124L91.3007 23.2992ZM82.3829 57.0894L91.2076 27.1924C91.2845 26.9321 91.2559 26.6572 91.1268 26.4189C90.998 26.1804 90.7841 26.0062 90.5245 25.9291L70.5354 19.9783L69.9636 21.915C69.7877 22.5111 69.2439 22.8969 68.6549 22.8969C68.5262 22.8969 68.3956 22.8786 68.2661 22.84C67.5428 22.6249 67.1306 21.8617 67.3448 21.1353L67.9165 19.1986L12.8562 2.80688C12.7617 2.77875 12.6646 2.76434 12.5679 2.76434C12.1235 2.76434 11.7249 3.06403 11.5983 3.4928L2.77344 33.3897C2.6145 33.9271 2.92114 34.494 3.45618 34.6533L58.5166 51.0448L58.9795 49.4761C59.1938 48.7497 59.9543 48.3362 60.677 48.5511C61.4003 48.7664 61.8125 49.5296 61.5983 50.2558L61.1354 51.8242L81.1248 57.7751C81.2195 57.8032 81.3164 57.8176 81.4132 57.8176C81.8574 57.8176 82.2562 57.5182 82.3829 57.0894ZM88.1641 68.2014C88.1641 68.7618 87.7101 69.2178 87.152 69.2178L66.3026 69.2178L66.3026 67.5817C66.3026 66.8245 65.6913 66.2103 64.937 66.2103C64.1827 66.2103 63.5714 66.8245 63.5714 67.5817L63.5714 69.2178L6.14233 69.2178C5.58435 69.2178 5.13025 68.7618 5.13025 68.2014L5.13025 38.0123L17.7567 41.7712L16.8729 42.6588L10.6984 41.9794L9.41968 43.0192L14.3331 45.2092L12.6166 46.9332L10.7858 46.7534C10.7545 46.7504 10.7242 46.7623 10.7024 46.7852L10.0615 47.4288C10.02 47.4674 10.0168 47.5328 10.0553 47.5753C10.0649 47.5858 10.0765 47.5941 10.0892 47.5995L11.6825 48.3278C11.6877 48.5895 11.7892 48.8494 11.9877 49.0489C12.1866 49.2482 12.4454 49.3504 12.7058 49.3557L13.4327 50.9536C13.4562 51.0059 13.5172 51.0291 13.5688 51.0059C13.58 51.0007 13.5905 50.9941 13.5991 50.9854L14.24 50.3376C14.2626 50.3159 14.2739 50.2855 14.2717 50.2542L14.0923 48.4194L15.8105 46.6937L17.9913 51.6284L19.0267 50.344L18.3506 44.1431L20.0359 42.4503L22.8733 43.2949L22.8733 44.0446C22.8733 44.2971 23.0771 44.5017 23.3285 44.5017L26.9271 44.5017L37.2773 47.5829L23.3285 47.5829C23.0771 47.5829 22.8733 47.7877 22.8733 48.04L22.8733 50.9509C22.8733 51.2034 23.0771 51.408 23.3285 51.408L50.1266 51.408L63.6139 55.4231C63.587 55.5303 63.5712 55.642 63.5712 55.7577L63.5712 61.6697C63.5712 62.427 64.1825 63.0411 64.9368 63.0411C65.691 63.0411 66.3024 62.427 66.3024 61.6697L66.3024 56.2233L80.3484 60.4048C80.6951 60.5081 81.0536 60.5604 81.413 60.5604C83.0579 60.5604 84.5332 59.4537 85.0013 57.8693L88.1641 47.1545L88.1641 68.2014Z" clip-rule="evenodd" fill="#ECB84C" fill-opacity="1.000000" fill-rule="evenodd"/>
		<path d="M64.02 37.21C63.3 36.99 62.54 37.41 62.32 38.13L60.65 43.8C60.43 44.53 60.85 45.29 61.57 45.51C61.7 45.55 61.83 45.56 61.96 45.56C62.55 45.56 63.09 45.18 63.27 44.58L64.94 38.91C65.15 38.19 64.74 37.43 64.02 37.21Z" fill="#ECB84C" fill-opacity="1.000000" fill-rule="evenodd"/>
		<path d="M67.36 25.87C66.64 25.66 65.88 26.07 65.67 26.8L63.99 32.47C63.78 33.19 64.19 33.96 64.92 34.17C65.04 34.21 65.17 34.23 65.3 34.23C65.89 34.23 66.44 33.84 66.61 33.25L68.29 27.58C68.5 26.85 68.09 26.09 67.36 25.87Z" fill="#ECB84C" fill-opacity="1.000000" fill-rule="evenodd"/>
		<path d="M13.35 15.05L14.67 16.2C14.61 16.45 14.63 16.73 14.76 16.98C14.9 17.23 15.12 17.4 15.36 17.48L15.61 19.22C15.62 19.27 15.67 19.31 15.73 19.31C15.74 19.3 15.75 19.3 15.76 19.3L16.56 18.86C16.59 18.84 16.61 18.82 16.61 18.79L16.96 16.98L19.1 15.81L19.79 21.17L21.15 20.23L22.25 14.09L24.6 12.81C25.1 12.54 25.29 11.9 25.02 11.39C24.74 10.88 24.11 10.69 23.6 10.97L21.26 12.25L15.53 9.83L14.01 10.47L18.1 13.97L15.96 15.13L14.26 14.44C14.23 14.42 14.2 14.43 14.17 14.44L13.37 14.88C13.32 14.9 13.3 14.96 13.33 15.01C13.33 15.03 13.34 15.04 13.35 15.05Z" fill="#ECB84C" fill-opacity="1.000000" fill-rule="evenodd"/>
		<path d="M55.82 42.08L8.74 28.06C8.5 27.99 8.24 28.13 8.17 28.37L7.35 31.16C7.31 31.28 7.33 31.4 7.38 31.51C7.44 31.62 7.54 31.7 7.65 31.73L54.74 45.75C54.78 45.76 54.82 45.77 54.87 45.77C54.94 45.77 55.01 45.75 55.08 45.71C55.19 45.65 55.27 45.55 55.3 45.44L56.13 42.65C56.2 42.41 56.06 42.15 55.82 42.08Z" fill="#ECB84C" fill-opacity="1.000000" fill-rule="evenodd"/>
		<path d="M57.77 35.46L10.69 21.44C10.58 21.41 10.45 21.42 10.35 21.48C10.24 21.54 10.16 21.63 10.13 21.75L9.3 24.54C9.23 24.78 9.37 25.04 9.61 25.11L56.69 39.12C56.73 39.14 56.78 39.14 56.82 39.14C56.89 39.14 56.97 39.12 57.04 39.09C57.14 39.03 57.22 38.93 57.26 38.82L58.08 36.03C58.15 35.78 58.01 35.53 57.77 35.46Z" fill="#ECB84C" fill-opacity="1.000000" fill-rule="evenodd"/>
		<path d="M59.73 28.84L26.05 18.81C25.81 18.74 25.56 18.88 25.49 19.12L24.66 21.91C24.63 22.03 24.64 22.15 24.7 22.26C24.76 22.36 24.85 22.44 24.97 22.48L58.65 32.5C58.69 32.52 58.73 32.52 58.77 32.52C58.85 32.52 58.92 32.5 58.99 32.47C59.1 32.41 59.18 32.31 59.21 32.2L60.03 29.4C60.11 29.16 59.97 28.91 59.73 28.84Z" fill="#ECB84C" fill-opacity="1.000000" fill-rule="evenodd"/>
		<path d="M60.73 25.9C60.92 25.9 61.11 25.77 61.16 25.57L61.99 22.78C62.02 22.67 62.01 22.54 61.95 22.43C61.9 22.33 61.8 22.25 61.68 22.21L28.01 12.19C27.77 12.12 27.51 12.25 27.44 12.5L26.62 15.29C26.58 15.4 26.59 15.53 26.65 15.64C26.71 15.74 26.81 15.82 26.92 15.86L60.6 25.88C60.64 25.89 60.69 25.9 60.73 25.9Z" fill="#ECB84C" fill-opacity="1.000000" fill-rule="evenodd"/>
		<path d="M58.45 61.39L9.34 61.39C9.09 61.39 8.89 61.6 8.89 61.85L8.89 64.76C8.89 65.01 9.09 65.22 9.34 65.22L58.45 65.22C58.7 65.22 58.9 65.01 58.9 64.76L58.9 61.85C58.9 61.6 58.7 61.39 58.45 61.39Z" fill="#ECB84C" fill-opacity="1.000000" fill-rule="evenodd"/>
		<path d="M58.45 54.48L9.34 54.48C9.22 54.48 9.11 54.53 9.02 54.62C8.93 54.7 8.89 54.82 8.89 54.94L8.89 57.85C8.89 58.1 9.09 58.31 9.34 58.31L58.45 58.31C58.7 58.31 58.9 58.1 58.9 57.85L58.9 54.94C58.9 54.69 58.7 54.48 58.45 54.48Z" fill="#ECB04C" fill-opacity="1.000000" fill-rule="evenodd"/>
	</g>
</svg>
