<?xml version="1.0" encoding="utf-8"?><svg viewBox="0 0 243 122" xmlns="http://www.w3.org/2000/svg" xmlns:xlink="http://www.w3.org/1999/xlink"><style>:root>svg{display:none}:root>svg:target{display:block}</style><svg fill="none" viewBox="0 0 16 16" id="arrow-left" xmlns="http://www.w3.org/2000/svg"><path d="M16 7H3.79L9.4 1.39 8 0 0 8l8 8 1.4-1.4L3.79 9H16V7Z" fill="#FAFAFA" fill-rule="evenodd"/></svg><svg fill="none" viewBox="0 0 16 16" id="arrow-right" xmlns="http://www.w3.org/2000/svg"><path d="M0 7h12.2L6.59 1.39 8 0l8 8-8 8-1.41-1.4L12.2 9H0V7Z" fill="#FAFAFA" fill-rule="evenodd"/></svg><svg fill="none" viewBox="0 0 17 16" id="cloud" xmlns="http://www.w3.org/2000/svg"><g clip-path="url(#ca)"><path fill-rule="evenodd" clip-rule="evenodd" d="M17 7.448c0 4.107-3.813 7.449-8.5 7.449a9.443 9.443 0 0 1-3.469-.648C3.103 15.332.437 15.706.323 15.72a.284.284 0 0 1-.293-.15.27.27 0 0 1 .053-.318c.652-.634 1.1-1.973 1.268-3.776C.466 10.274 0 8.884 0 7.448 0 3.341 3.813 0 8.5 0 13.187 0 17 3.341 17 7.448Zm-11.333 0c0-.608-.509-1.103-1.134-1.103-.625 0-1.133.495-1.133 1.103 0 .609.508 1.104 1.133 1.104s1.134-.495 1.134-1.104Zm3.966 0c0-.608-.508-1.103-1.133-1.103s-1.133.495-1.133 1.103c0 .609.508 1.104 1.133 1.104s1.133-.495 1.133-1.104Zm3.967 0c0-.608-.508-1.103-1.133-1.103s-1.134.495-1.134 1.103c0 .609.509 1.104 1.134 1.104.625 0 1.133-.495 1.133-1.104Z" fill="#D3D3D3"/></g><defs><clipPath id="ca"><path fill="#fff" transform="matrix(-1 0 0 1 17 0)" d="M0 0h17v16H0z"/></clipPath></defs></svg><svg fill="none" viewBox="0 0 33 33" id="decor1" xmlns="http://www.w3.org/2000/svg"><path d="M33 2V0H0v33h2V2h31Z" fill="#ECB84C"/></svg><svg fill="none" viewBox="0 0 33 33" id="decor2" xmlns="http://www.w3.org/2000/svg"><path d="M31 31H0v2h33V0h-2v31Z" fill="#ECB84C"/></svg><svg fill="none" viewBox="0 0 32 32" id="dot" xmlns="http://www.w3.org/2000/svg"><defs><clipPath id="fa"><path transform="translate(-.403)" fill="#fff" fill-opacity="0" d="M0 0h32v32H0z"/></clipPath></defs><path fill="none" d="M-.403 0h32v32h-32z"/><g clip-path="url(#fa)"><g opacity=".747"><path d="M15.59 32c8.84 0 16-7.17 16-16 0-8.84-7.16-16-16-16-8.83 0-16 7.16-16 16 0 8.83 7.17 16 16 16Z" fill="#ECB84C" fill-rule="evenodd"/><path d="M31.59 16c0-8.84-7.16-16-16-16-8.83 0-16 7.16-16 16 0 8.83 7.17 16 16 16 8.84 0 16-7.17 16-16Z"/></g><path d="M15.59 21c2.76 0 5-2.24 5-5 0-2.77-2.24-5-5-5s-5 2.23-5 5c0 2.76 2.24 5 5 5Z" fill="#FFD600" fill-rule="evenodd"/><path d="M20.59 16c0-2.77-2.24-5-5-5s-5 2.23-5 5c0 2.76 2.24 5 5 5s5-2.24 5-5Z"/></g></svg><svg fill="none" viewBox="0 0 16 13" id="email" xmlns="http://www.w3.org/2000/svg"><g clip-path="url(#ga)"><path fill-rule="evenodd" clip-rule="evenodd" d="M14.4 0H1.6C.72 0 0 .731 0 1.625v9.75C0 12.269.72 13 1.6 13h12.8c.88 0 1.6-.731 1.6-1.625v-9.75C16 .731 15.28 0 14.4 0Zm0 3.25L8 7.313 1.6 3.25V1.625L8 5.688l6.4-4.063V3.25Z" fill="#D3D3D3"/></g><defs><clipPath id="ga"><path fill="#fff" d="M0 0h16v13H0z"/></clipPath></defs></svg><svg fill="none" viewBox="0 0 16 16" id="facebook" xmlns="http://www.w3.org/2000/svg"><g clip-path="url(#ha)"><path fill-rule="evenodd" clip-rule="evenodd" d="M8 0C3.589 0 0 3.589 0 8c0 4.41 3.589 8 8 8 4.41 0 8-3.59 8-8 0-4.411-3.588-8-8-8Zm1.99 8.282H8.688v4.639H6.759V8.28h-.916V6.643h.916v-1.06c0-.76.361-1.947 1.947-1.947l1.429.006v1.591H9.098c-.17 0-.41.085-.41.447v.963h1.47l-.168 1.64Z" fill="#D3D3D3"/></g><defs><clipPath id="ha"><path fill="#fff" d="M0 0h16v16H0z"/></clipPath></defs></svg><svg fill="none" viewBox="0 0 16 16" id="instagram" xmlns="http://www.w3.org/2000/svg"><g clip-path="url(#ia)" fill-rule="evenodd" clip-rule="evenodd" fill="#D3D3D3"><path d="M7.944 9.535c.876 0 1.591-.713 1.591-1.59 0-.347-.113-.667-.3-.928a1.588 1.588 0 0 0-1.29-.663c-.53 0-1 .262-1.29.663a1.591 1.591 0 0 0 1.289 2.518ZM11.417 5.999V4.467h-.2l-1.332.005.005 1.532 1.527-.005Z"/><path d="M7.944 0C3.564 0 0 3.564 0 7.944s3.564 7.945 7.944 7.945 7.945-3.564 7.945-7.945C15.889 3.564 12.325 0 7.944 0Zm4.518 7.017v3.7c0 .963-.783 1.746-1.746 1.746H5.172a1.748 1.748 0 0 1-1.746-1.746V5.172c0-.963.783-1.746 1.746-1.746h5.544c.963 0 1.746.783 1.746 1.746v1.844Z"/><path d="M10.416 7.944a2.474 2.474 0 0 1-2.472 2.472 2.474 2.474 0 0 1-2.289-3.399H4.306v3.7c0 .478.388.865.866.865h5.544a.866.866 0 0 0 .866-.866V7.018h-1.35c.118.286.184.6.184.927Z"/></g><defs><clipPath id="ia"><path fill="#fff" d="M0 0h16v16H0z"/></clipPath></defs></svg><svg fill="none" viewBox="0 0 94 80" id="interface" xmlns="http://www.w3.org/2000/svg"><defs><clipPath id="ja"><path fill="#fff" fill-opacity="0" d="M0 0h94v80H0z"/></clipPath></defs><path fill="none" d="M0 0h94v80H0z"/><g clip-path="url(#ja)" fill="#ECB84C" fill-rule="evenodd"><path d="M86.76 26.39c-4.53-4.52-10.85-7.73-17.82-9.06-.84-.16-1.65.4-1.81 1.24-.16.85.39 1.66 1.24 1.82 13.26 2.52 22.53 11.8 22.53 22.55 0 8.86-6.27 16.83-16.37 20.79-.51.2-.88.66-.97 1.21-.61 4 .23 8.07 2.27 11.46-4.46-1.2-8.07-4.64-9.48-9.3-.21-.71-.89-1.17-1.61-1.1-1.1.09-2.2.14-3.28.14-9.64 0-18.69-3.74-24.21-10a1.53 1.53 0 0 0-2.18-.14c-.65.57-.7 1.56-.14 2.2 6.1 6.92 16.01 11.06 26.53 11.06.77 0 1.55-.03 2.33-.07 1.13 2.91 3.06 5.51 5.53 7.4 2.91 2.22 6.38 3.39 10.03 3.39a1.556 1.556 0 0 0 1.1-2.65c-2.86-2.91-4.29-6.98-3.93-11.05 5.01-2.12 9.25-5.25 12.31-9.1C92.21 52.94 94 48.02 94 42.94c0-6.01-2.58-11.9-7.24-16.55Z"/><path d="M65.077 26.326c0-7.097-3.432-13.746-9.663-18.723C49.288 2.709 41.164.014 32.538.014c-8.626 0-16.75 2.695-22.876 7.589C3.432 12.58 0 19.229 0 26.326c0 5.076 1.785 10 5.162 14.24 3.065 3.85 7.308 6.98 12.312 9.093.365 4.072-1.07 8.147-3.927 11.048a1.565 1.565 0 0 0-.33 1.697c.242.58.806.959 1.43.959 3.65 0 7.115-1.174 10.023-3.394a17.087 17.087 0 0 0 5.531-7.398c.783.045 1.565.068 2.337.068 8.626 0 16.75-2.695 22.876-7.588 6.231-4.978 9.663-11.627 9.663-18.725ZM27.643 50.478a1.548 1.548 0 0 1 1.617-1.1c1.094.096 2.197.144 3.278.144 16.234 0 29.44-10.405 29.44-23.195 0-12.79-13.206-23.196-29.44-23.196-16.233 0-29.44 10.405-29.44 23.195 0 8.86 6.271 16.822 16.365 20.78.515.203.884.666.969 1.215.612 4-.224 8.072-2.266 11.462 4.46-1.198 8.072-4.64 9.477-9.305Z" clip-rule="evenodd"/></g></svg><svg fill="none" viewBox="0 0 243 122" id="line" xmlns="http://www.w3.org/2000/svg"><path d="M242.59.5v-1h-122.2L-.76 120.64l.71.71L120.8.5h121.79Z" fill="#ECB84C"/></svg><svg fill="none" viewBox="0 0 80 76" id="restaurant" xmlns="http://www.w3.org/2000/svg"><defs><clipPath id="la"><path fill="#fff" fill-opacity="0" d="M0 0h80v76H0z"/></clipPath></defs><path fill="none" d="M0 0h80v76H0z"/><g clip-path="url(#la)" clip-rule="evenodd" fill="#ECB84C" fill-rule="evenodd"><path d="M68.966.038h5.517C77.655.038 80 2.385 80 5.422v10.905c0 2.832-1.719 5.406-4.138 6.57v51.685c0 .828-.551 1.38-1.38 1.38H5.518c-.827 0-1.38-.552-1.38-1.38v-51.69a8.787 8.787 0 0 1-1.93-1.181C.827 20.468 0 18.536 0 16.603V5.422C0 2.385 2.345.038 5.38.038h63.586ZM57.93 2.798h8.138v13.805c0 .277.022.554.06.83-.367 1.927-2 3.312-4.06 3.312-2.345 0-4.138-1.795-4.138-4.142V2.8Zm-11.034 0h8.276v13.805c0 2.347-1.794 4.142-4.139 4.142-2.344 0-4.137-1.795-4.137-4.142V2.8Zm-11.035 0h8.276v13.805c0 2.347-1.793 4.142-4.138 4.142-2.345 0-4.138-1.795-4.138-4.142V2.8Zm-11.034 0h8.276v13.805c0 2.347-1.793 4.142-4.138 4.142-2.345 0-4.138-1.795-4.138-4.142V2.8Zm-11.035 0h8.276v13.805c0 2.347-1.793 4.142-4.138 4.142-2.345 0-4.138-1.795-4.138-4.142V2.8ZM2.76 16.604V5.422c0-1.519 1.103-2.623 2.62-2.623h5.655v13.528c0 2.064-1.446 3.887-3.324 4.342a4.394 4.394 0 0 1-.63.071c-1.043-.037-2.172-.329-2.942-1.1-.828-.69-1.38-1.933-1.38-3.037Zm4.827 6.902a6.521 6.521 0 0 0 1.578-.395 6.99 6.99 0 0 0 3.233-2.344c1.248 1.673 3.246 2.74 5.534 2.74 2.278 0 4.268-1.058 5.517-2.719 1.25 1.66 3.24 2.718 5.517 2.718 2.279 0 4.268-1.057 5.518-2.718 1.249 1.66 3.239 2.718 5.517 2.718 2.278 0 4.268-1.057 5.517-2.718 1.25 1.66 3.239 2.718 5.517 2.718 2.279 0 4.268-1.057 5.517-2.718 1.25 1.66 3.24 2.718 5.518 2.718 2.271 0 4.256-1.051 5.506-2.703.256.33.537.637.838.909.221.177.45.342.684.496a7 7 0 0 0 3.376 1.265l.03.003a6.858 6.858 0 0 0 .6.03v5.522H6.897v-5.522h.69Zm6.207 49.696V37.31h16.552v19.326h-2.759c-.827 0-1.38.552-1.38 1.38 0 .829.553 1.381 1.38 1.381h2.759v13.804H13.793Zm59.31 0h-40V35.93c0-.828-.551-1.38-1.379-1.38h-19.31c-.828 0-1.38.552-1.38 1.38v37.272H6.897V31.788h66.206v41.413Zm4.138-56.874c0 2.04-1.25 3.661-2.936 4.233-.078.007-.157.02-.236.047-.203.101-.48.128-.723.135-1.06-.028-2.216-.316-3.001-1.102-.828-.69-1.38-1.933-1.38-3.037V2.8h5.656c1.517 0 2.62 1.242 2.62 2.623v10.905Z"/><path d="M68.966 67.68H38.62c-.828 0-1.38-.553-1.38-1.38V35.93c0-.829.552-1.381 1.38-1.381h30.345c.827 0 1.379.552 1.379 1.38V66.3c0 .828-.552 1.38-1.38 1.38ZM40 37.31h5.517c-.276 7.73-2.896 13.252-5.517 14.77V37.31Zm19.31 22.087c0 .828-.551 1.38-1.379 1.38h-2.759v4.142h5.556c.273-4.917 1.988-9.022 4.513-11.044-3.384-2.736-5.662-8.916-5.908-16.565H48.251c-.258 7.649-2.652 13.829-5.906 16.565 2.525 2.022 4.24 6.127 4.513 11.044h5.556v-4.142h-2.759c-.828 0-1.38-.552-1.38-1.38 0-.829.553-1.38 1.38-1.38h8.276c.828 0 1.38.551 1.38 1.38Zm8.276-7.317V37.31H62.07c.276 7.73 2.759 13.252 5.517 14.77ZM44.138 64.92c-.276-4.694-2.07-8.145-4.138-9.25v9.25h4.138Zm23.448 0h-4.138c.414-4.694 2.207-8.145 4.138-9.25v9.25ZM27.586 41.45v8.284c0 .828-.551 1.38-1.38 1.38h-8.275c-.828 0-1.38-.552-1.38-1.38V41.45c0-.828.552-1.38 1.38-1.38h8.276c.828 0 1.38.552 1.38 1.38Zm-8.275 6.903h5.517v-5.521H19.31v5.521Z"/></g></svg><svg fill="none" viewBox="0 0 80 80" id="route" xmlns="http://www.w3.org/2000/svg"><defs><clipPath id="ma"><path fill="#fff" fill-opacity="0" d="M0 0h80v80H0z"/></clipPath></defs><path fill="none" d="M0 0h80v80H0z"/><g clip-path="url(#ma)" fill="#ECB84C" fill-rule="evenodd"><path d="M28.028 38.636c-3.028-3.42-7.065-5.303-11.37-5.303-4.306 0-8.343 1.883-11.37 5.303-6.15 6.948-6.15 18.25 0 25.199l11.37 12.844 11.369-12.844c6.15-6.948 6.15-18.251.001-25.199Zm-11.37 34.019 9.373-10.588c5.286-5.974 5.286-15.691-.002-21.663C23.517 37.564 20.187 36 16.657 36c-3.529 0-6.858 1.564-9.372 4.404-5.288 5.972-5.288 15.69 0 21.663l9.374 10.588ZM64.996 32.676l8.619-9.715c4.637-5.226 4.637-13.728 0-18.954C71.32 1.423 68.26 0 64.995 0c-3.264 0-6.326 1.423-8.619 4.007-4.637 5.226-4.637 13.728 0 18.954l8.62 9.715Zm-.001-30.01c-2.492 0-4.844 1.105-6.624 3.111-3.771 4.25-3.771 11.164 0 15.414l6.625 7.468 6.624-7.468c3.77-4.25 3.77-11.164 0-15.414-1.78-2.006-4.132-3.11-6.625-3.11Z" clip-rule="evenodd"/><path d="M70.13 72.68c-.71-.16-1.43.29-1.59 1.01a4.63 4.63 0 0 1-.88 1.86c-.46.58-.36 1.42.22 1.87.25.19.54.29.82.29.4 0 .79-.18 1.05-.51.67-.86 1.15-1.87 1.39-2.92.16-.72-.29-1.43-1.01-1.6ZM42.66 41.33c-.58 0-1.14-.11-1.67-.31-.69-.26-1.46.08-1.73.77-.26.69.09 1.46.78 1.72.83.32 1.71.48 2.61.48h.48c.74 0 1.33-.59 1.33-1.33 0-.74-.59-1.33-1.33-1.33h-.47ZM39.49 32.9c.24 0 .48-.07.7-.2.59-.37 1.25-.6 1.94-.68.73-.08 1.26-.74 1.18-1.47-.08-.73-.73-1.25-1.47-1.18-1.1.12-2.12.48-3.06 1.06a1.338 1.338 0 0 0 .71 2.47ZM24.08 77.33h-2.67c-.73 0-1.33.59-1.33 1.33 0 .74.6 1.34 1.33 1.34h2.67c.74 0 1.33-.6 1.33-1.34 0-.74-.59-1.33-1.33-1.33ZM47.99 53.33c-.12 0-.23 0-.35.01-.73.03-1.3.65-1.27 1.38.03.72.62 1.28 1.33 1.28h2.67c.73 0 1.33-.6 1.33-1.34 0-.74-.6-1.33-1.33-1.33h-2.38ZM47.32 32h2.67c.73 0 1.33-.6 1.33-1.34 0-.74-.6-1.33-1.33-1.33h-2.67c-.74 0-1.33.59-1.33 1.33 0 .74.59 1.34 1.33 1.34ZM63.7 53.33c-.74 0-1.33.59-1.33 1.33 0 .74.59 1.34 1.33 1.34h2.67c.73 0 1.33-.6 1.33-1.34 0-.74-.6-1.33-1.33-1.33H63.7ZM68.46 42.66c0-.74-.59-1.33-1.33-1.33h-2.67c-.73 0-1.33.59-1.33 1.33 0 .74.6 1.34 1.33 1.34h2.67c.74 0 1.33-.6 1.33-1.34ZM55.7 56h2.67c.73 0 1.33-.6 1.33-1.34 0-.74-.6-1.33-1.33-1.33H55.7c-.74 0-1.33.59-1.33 1.33 0 .74.59 1.34 1.33 1.34ZM57.99 32c.73 0 1.33-.6 1.33-1.34 0-.74-.6-1.33-1.33-1.33h-2.67c-.74 0-1.33.59-1.33 1.33 0 .74.59 1.34 1.33 1.34h2.67ZM48.46 41.33c-.73 0-1.33.59-1.33 1.33 0 .74.6 1.34 1.33 1.34h2.67c.74 0 1.33-.6 1.33-1.34 0-.74-.59-1.33-1.33-1.33h-2.67ZM60.46 42.66c0-.74-.59-1.33-1.33-1.33h-2.67c-.73 0-1.33.59-1.33 1.33 0 .74.6 1.34 1.33 1.34h2.67c.74 0 1.33-.6 1.33-1.34ZM79.23 47.5c-.12-.72-.8-1.22-1.53-1.1-.73.12-1.22.8-1.1 1.53.03.23.06.48.05.73 0 .45-.06.89-.19 1.32-.2.71.2 1.45.91 1.66a1.335 1.335 0 0 0 1.65-.91c.2-.67.3-1.37.3-2.06 0-.38-.03-.77-.09-1.17ZM56.08 77.33h-2.67c-.73 0-1.33.59-1.33 1.33 0 .74.6 1.34 1.33 1.34h2.67c.74 0 1.33-.6 1.33-1.34 0-.74-.59-1.33-1.33-1.33ZM48.08 77.33h-2.67c-.73 0-1.33.59-1.33 1.33 0 .74.6 1.34 1.33 1.34h2.67c.74 0 1.33-.6 1.33-1.34 0-.74-.59-1.33-1.33-1.33ZM62.75 66.66c0-.74-.6-1.33-1.33-1.33h-2.67c-.74 0-1.33.59-1.33 1.33 0 .74.59 1.34 1.33 1.34h2.67c.73 0 1.33-.6 1.33-1.34ZM54.75 66.66c0-.74-.6-1.33-1.33-1.33h-2.67c-.74 0-1.33.59-1.33 1.33 0 .74.59 1.34 1.33 1.34h2.67c.73 0 1.33-.6 1.33-1.34ZM63.99 77.33h-2.58c-.73 0-1.33.59-1.33 1.33 0 .74.6 1.34 1.33 1.34l2.63-.01.04-1.33v1.33c.74 0 1.29-.59 1.29-1.33 0-.74-.65-1.33-1.38-1.33ZM68.7 70.29c.29 0 .58-.1.83-.29.58-.45.67-1.29.22-1.87a7.41 7.41 0 0 0-2.51-2.04 1.32 1.32 0 0 0-1.78.6c-.33.66-.06 1.46.6 1.79.61.31 1.17.76 1.59 1.3.27.33.66.51 1.05.51ZM73.79 52.97c-.57.24-1.18.36-1.8.36h-.29c-.74 0-1.33.59-1.33 1.33 0 .74.59 1.34 1.33 1.34h.29c.98 0 1.93-.2 2.83-.57.68-.29 1-1.07.71-1.75-.28-.68-1.07-1-1.74-.71ZM37.37 39.8c.7-.23 1.08-.98.85-1.68-.16-.47-.23-.96-.23-1.45 0-.2.01-.41.03-.6.1-.73-.42-1.4-1.15-1.49-.76-.09-1.4.43-1.49 1.16a7.361 7.361 0 0 0 .3 3.21c.19.56.71.92 1.27.92.14 0 .28-.02.42-.07ZM32.08 77.33h-2.67c-.73 0-1.33.59-1.33 1.33 0 .74.6 1.34 1.33 1.34h2.67c.74 0 1.33-.6 1.33-1.34 0-.74-.59-1.33-1.33-1.33ZM45.49 67.45c.51 0 .99-.29 1.21-.77.31-.68.02-1.47-.65-1.77a4.78 4.78 0 0 1-1.64-1.25c-.47-.56-1.31-.64-1.88-.16-.56.47-.64 1.31-.16 1.88.7.83 1.59 1.5 2.57 1.95.18.08.37.12.55.12ZM75.66 42.31c-.96-.55-2-.87-3.09-.96-.74-.05-1.38.49-1.44 1.23-.05.73.49 1.37 1.23 1.43.7.05 1.36.26 1.96.61.21.12.44.18.67.18.46 0 .91-.24 1.15-.66.37-.64.15-1.46-.48-1.83ZM40.08 77.33h-2.67c-.73 0-1.33.59-1.33 1.33 0 .74.6 1.34 1.33 1.34h2.67c.74 0 1.33-.6 1.33-1.34 0-.74-.59-1.33-1.33-1.33ZM43.4 59.78c.13-.69.41-1.32.83-1.88.43-.6.31-1.43-.29-1.87a1.33 1.33 0 0 0-1.86.29 7.3 7.3 0 0 0-1.3 2.96c-.14.72.34 1.42 1.06 1.56.08.02.17.02.25.02.63 0 1.19-.44 1.31-1.08Z"/><path d="M72.657 12.667c0 4.042-3.29 7.333-7.333 7.333s-7.333-3.29-7.333-7.333 3.29-7.334 7.333-7.334 7.333 3.291 7.333 7.334Zm-2.666 0A4.672 4.672 0 0 0 65.324 8a4.673 4.673 0 0 0-4.667 4.667 4.672 4.672 0 0 0 4.667 4.666 4.672 4.672 0 0 0 4.667-4.666ZM8.657 49.333c0-4.412 3.588-8 8-8s8 3.588 8 8-3.588 8-8 8-8-3.588-8-8Zm2.667 0a5.339 5.339 0 0 0 5.333 5.334 5.339 5.339 0 0 0 5.334-5.334A5.339 5.339 0 0 0 16.657 44a5.339 5.339 0 0 0-5.333 5.333Z" clip-rule="evenodd"/></g></svg><svg fill="none" viewBox="0 0 94 72" id="transport" xmlns="http://www.w3.org/2000/svg"><defs><clipPath id="na"><path fill="#fff" fill-opacity="0" d="M0 0h94v72H0z"/></clipPath></defs><path fill="none" d="M0 0h94v72H0z"/><g clip-path="url(#na)" fill-rule="evenodd"><path d="M91.3 23.3c.96.284 1.75.928 2.227 1.81.477.883.584 1.9.299 2.862l-2.93 9.93v30.3c0 2.072-1.68 3.759-3.744 3.759H6.142c-2.064 0-3.743-1.687-3.743-3.76V37.184A3.766 3.766 0 0 1 .155 32.61L8.98 2.713A3.768 3.768 0 0 1 12.568.021c.36 0 .718.053 1.064.156L91.301 23.3Zm-8.917 33.79 8.825-29.898c.076-.26.048-.535-.081-.773a1.006 1.006 0 0 0-.602-.49l-19.99-5.95-.571 1.936a1.367 1.367 0 0 1-1.698.925 1.372 1.372 0 0 1-.921-1.705l.572-1.936-55.06-16.392a1.01 1.01 0 0 0-.29-.043c-.444 0-.842.3-.969.729L2.773 33.39a1.018 1.018 0 0 0 .683 1.263l55.06 16.392.464-1.569a1.365 1.365 0 1 1 2.618.78l-.463 1.568 19.99 5.951c.094.028.191.043.288.043.444 0 .843-.3.97-.729ZM88.164 68.2c0 .56-.454 1.017-1.012 1.017h-20.85v-1.636c0-.757-.61-1.372-1.365-1.372-.754 0-1.366.615-1.366 1.372v1.636H6.142A1.015 1.015 0 0 1 5.13 68.2V38.012l12.627 3.76-.884.887-6.175-.68-1.278 1.04 4.913 2.19-1.716 1.724-1.831-.18a.101.101 0 0 0-.084.032l-.64.644a.104.104 0 0 0-.007.146c.01.01.021.02.034.024l1.593.729a1.048 1.048 0 0 0 1.024 1.028l.727 1.598a.103.103 0 0 0 .166.031l.641-.647a.105.105 0 0 0 .032-.084l-.18-1.835 1.718-1.725 2.181 4.934 1.036-1.284-.676-6.2 1.685-1.694 2.837.845v.75c0 .252.204.457.455.457h3.6l10.35 3.08h-13.95a.456.456 0 0 0-.455.458v2.91c0 .253.204.458.455.458h26.799l13.487 4.015a1.371 1.371 0 0 0-.043.335v5.912c0 .757.612 1.371 1.366 1.371.754 0 1.365-.614 1.365-1.371v-5.447l14.046 4.182c.347.103.706.155 1.065.155a3.768 3.768 0 0 0 3.588-2.69l3.163-10.715V68.2Z" clip-rule="evenodd" fill="#ECB84C"/><path d="M64.02 37.21c-.72-.22-1.48.2-1.7.92l-1.67 5.67c-.22.73.2 1.49.92 1.71.13.04.26.05.39.05.59 0 1.13-.38 1.31-.98l1.67-5.67c.21-.72-.2-1.48-.92-1.7ZM67.36 25.87c-.72-.21-1.48.2-1.69.93l-1.68 5.67c-.21.72.2 1.49.93 1.7.12.04.25.06.38.06.59 0 1.14-.39 1.31-.98l1.68-5.67c.21-.73-.2-1.49-.93-1.71ZM13.35 15.05l1.32 1.15c-.06.25-.04.53.09.78.14.25.36.42.6.5l.25 1.74c.01.05.06.09.12.09.01-.01.02-.01.03-.01l.8-.44c.03-.02.05-.04.05-.07l.35-1.81 2.14-1.17.69 5.36 1.36-.94 1.1-6.14 2.35-1.28c.5-.27.69-.91.42-1.42-.28-.51-.91-.7-1.42-.42l-2.34 1.28-5.73-2.42-1.52.64 4.09 3.5-2.14 1.16-1.7-.69c-.03-.02-.06-.01-.09 0l-.8.44c-.05.02-.07.08-.04.13 0 .02.01.03.02.04ZM55.82 42.08 8.74 28.06c-.24-.07-.5.07-.57.31l-.82 2.79c-.04.12-.02.24.03.35.06.11.16.19.27.22l47.09 14.02c.04.01.08.02.13.02.07 0 .14-.02.21-.06a.45.45 0 0 0 .22-.27l.83-2.79c.07-.24-.07-.5-.31-.57ZM57.77 35.46 10.69 21.44a.448.448 0 0 0-.34.04c-.11.06-.19.15-.22.27l-.83 2.79c-.07.24.07.5.31.57l47.08 14.01c.04.02.09.02.13.02.07 0 .15-.02.22-.05.1-.06.18-.16.22-.27l.82-2.79c.07-.25-.07-.5-.31-.57ZM59.73 28.84 26.05 18.81a.453.453 0 0 0-.56.31l-.83 2.79c-.03.12-.02.24.04.35.06.1.15.18.27.22L58.65 32.5c.04.02.08.02.12.02.08 0 .15-.02.22-.05a.45.45 0 0 0 .22-.27l.82-2.8a.44.44 0 0 0-.3-.56ZM60.73 25.9c.19 0 .38-.13.43-.33l.83-2.79a.462.462 0 0 0-.31-.57L28.01 12.19c-.24-.07-.5.06-.57.31l-.82 2.79c-.04.11-.03.24.03.35.06.1.16.18.27.22L60.6 25.88c.04.01.09.02.13.02ZM58.45 61.39H9.34c-.25 0-.45.21-.45.46v2.91c0 .25.2.46.45.46h49.11c.25 0 .45-.21.45-.46v-2.91c0-.25-.2-.46-.45-.46Z" fill="#ECB84C"/><path d="M58.45 54.48H9.34c-.12 0-.23.05-.32.14-.09.08-.13.2-.13.32v2.91c0 .25.2.46.45.46h49.11c.25 0 .45-.21.45-.46v-2.91c0-.25-.2-.46-.45-.46Z" fill="#ECB04C"/></g></svg><svg fill="none" viewBox="0 0 16 16" id="youtub" xmlns="http://www.w3.org/2000/svg"><g clip-path="url(#oa)" fill-rule="evenodd" clip-rule="evenodd" fill="#D3D3D3"><path d="m6.526 9.728 3.582-1.857-3.582-1.869v3.726Z"/><path d="M7.98 0a7.98 7.98 0 1 0 0 15.96A7.98 7.98 0 0 0 7.98 0Zm5.436 10.643a1.424 1.424 0 0 1-1.218 1.107c-1.397.156-2.81.157-4.219.156-1.408.001-2.822 0-4.22-.156a1.422 1.422 0 0 1-1.217-1.107c-.196-.853-.196-1.785-.196-2.663 0-.879.002-1.81.198-2.664.138-.6.628-1.041 1.218-1.107 1.397-.156 2.811-.157 4.22-.156 1.407-.001 2.822 0 4.218.156.59.066 1.08.508 1.219 1.107.196.853.194 1.785.194 2.664 0 .878 0 1.81-.197 2.663Z"/></g><defs><clipPath id="oa"><path fill="#fff" d="M0 0h16v16H0z"/></clipPath></defs></svg></svg>